<?xml version="1.0" encoding="UTF-8"?>
<svg xmlns="http://www.w3.org/2000/svg" version="1.1" viewBox="0 0 225 225">
  <defs>
    <style>
      .cls-1 {
        fill: #fff;
      }

      .cls-2 {
        fill: #a5dce6;
      }

      .cls-3 {
        fill: #dd156e;
      }

      .cls-4 {
        fill: #fff380;
      }

      .cls-5 {
        fill: #2d2d2d;
      }
    </style>
  </defs>
  <!-- Generator: Adobe Illustrator 28.6.0, SVG Export Plug-In . SVG Version: 1.2.0 Build 709)  -->
  <g>
    <g id="Layer_1">
      <g>
        <rect class="cls-2" x="104.3" y="129.8" width="22.7" height="5.9"/>
        <rect class="cls-3" x="130.1" y="129.8" width="22.7" height="5.9"/>
        <rect class="cls-4" x="155.8" y="129.8" width="22.7" height="5.9"/>
        <rect class="cls-5" x="181.5" y="129.8" width="22.7" height="5.9"/>
      </g>
      <g>
        <path class="cls-1" d="M62.4,105.3c0,6.4-5.4,10.1-15.5,10.1h-20.7v-36.7h19.6c10.1,0,14.8,4,14.8,9.6s-1.7,6.2-5.1,7.9c4.3,1.6,6.8,4.7,6.8,9.1ZM38.4,87.4v5.5h5.8c2.8,0,4-.9,4-2.7s-1.3-2.7-4-2.7h-5.8ZM49.9,103.9c0-1.9-1.4-2.9-4.1-2.9h-7.4v5.8h7.4c2.7,0,4.1-1,4.1-2.9Z"/>
        <path class="cls-1" d="M99.1,109h-13.9l-2.5,6.4h-12.6l16-36.7h12.2l16,36.7h-12.8l-2.5-6.4ZM95.7,100.1l-3.6-9.2-3.6,9.2h7.1Z"/>
        <path class="cls-1" d="M147.5,96.1h10.7v15.5c-4.5,3-10.6,4.7-16,4.7-11.8,0-20.5-7.9-20.5-19.2s8.6-19.2,20.8-19.2,13.1,2.5,16.8,7.1l-7.9,7c-2.3-2.7-5-4-8.2-4-5.5,0-8.9,3.5-8.9,9.2s3.5,9.2,8.8,9.2,3-.3,4.5-.9v-9.3Z"/>
        <path class="cls-1" d="M195.1,96.1h10.7v15.5c-4.5,3-10.6,4.7-16,4.7-11.8,0-20.5-7.9-20.5-19.2s8.6-19.2,20.8-19.2,13.1,2.5,16.8,7.1l-7.9,7c-2.3-2.7-5-4-8.2-4-5.5,0-8.9,3.5-8.9,9.2s3.5,9.2,8.8,9.2,3-.3,4.5-.9v-9.3Z"/>
      </g>
      <g>
        <path class="cls-1" d="M26.1,123.2c0-1.8,1.4-3.1,3.2-3.1s1.8.3,2.3,1l-.6.6c-.5-.5-1-.7-1.7-.7-1.4,0-2.4,1-2.4,2.3s1,2.3,2.4,2.3,1.2-.2,1.7-.7l.6.6c-.6.6-1.4,1-2.3,1-1.9,0-3.2-1.3-3.2-3.1Z"/>
        <path class="cls-1" d="M35.6,119.8h.8v6.5h-.8v-6.5Z"/>
        <path class="cls-1" d="M40.4,124c0-1.4,1-2.4,2.4-2.4s2.4,1,2.4,2.4-1,2.4-2.4,2.4-2.4-1-2.4-2.4ZM44.3,124c0-1-.7-1.6-1.6-1.6s-1.6.6-1.6,1.6.7,1.6,1.6,1.6,1.6-.6,1.6-1.6Z"/>
        <path class="cls-1" d="M53.5,121.7v4.6h-.8v-.7c-.3.5-.9.8-1.6.8-1.2,0-2-.7-2-2v-2.7h.8v2.6c0,.9.5,1.4,1.2,1.4s1.4-.5,1.4-1.5v-2.4h.8Z"/>
        <path class="cls-1" d="M62.2,119.8v6.5h-.8v-.7c-.4.5-1,.8-1.7.8-1.4,0-2.3-1-2.3-2.4s1-2.4,2.3-2.4,1.2.2,1.6.7v-2.6h.8ZM61.4,124c0-1-.7-1.6-1.6-1.6s-1.6.6-1.6,1.6.7,1.6,1.6,1.6,1.6-.6,1.6-1.6Z"/>
        <path class="cls-1" d="M66.3,123.5h2.3v.7h-2.3v-.7Z"/>
        <path class="cls-1" d="M77.8,122.3c0,1.3-1,2.1-2.6,2.1h-1.5v1.9h-.9v-6.1h2.4c1.6,0,2.6.8,2.6,2.1ZM76.9,122.3c0-.9-.6-1.4-1.7-1.4h-1.5v2.7h1.5c1.1,0,1.7-.5,1.7-1.4Z"/>
        <path class="cls-1" d="M81.3,124c0-1.4,1-2.4,2.4-2.4s2.4,1,2.4,2.4-1,2.4-2.4,2.4-2.4-1-2.4-2.4ZM85.3,124c0-1-.7-1.6-1.6-1.6s-1.6.6-1.6,1.6.7,1.6,1.6,1.6,1.6-.6,1.6-1.6Z"/>
        <path class="cls-1" d="M97,121.7l-1.7,4.6h-.8l-1.3-3.5-1.4,3.5h-.8l-1.7-4.6h.8l1.3,3.7,1.4-3.7h.7l1.4,3.7,1.4-3.7h.8Z"/>
        <path class="cls-1" d="M104.7,124.2h-3.8c.1.8.8,1.4,1.7,1.4s1-.2,1.3-.6l.5.5c-.4.5-1.1.8-1.8.8-1.5,0-2.5-1-2.5-2.4s1-2.4,2.3-2.4,2.3,1,2.3,2.4,0,.2,0,.3ZM100.9,123.6h3c0-.8-.7-1.3-1.5-1.3s-1.4.5-1.5,1.3Z"/>
        <path class="cls-1" d="M111.1,121.6v.8c0,0-.1,0-.2,0-.9,0-1.5.6-1.5,1.6v2.3h-.8v-4.6h.8v.8c.3-.5.9-.8,1.7-.8Z"/>
        <path class="cls-1" d="M119.1,124.2h-3.8c.1.8.8,1.4,1.7,1.4s1-.2,1.3-.6l.5.5c-.4.5-1.1.8-1.8.8-1.5,0-2.5-1-2.5-2.4s1-2.4,2.3-2.4,2.3,1,2.3,2.4,0,.2,0,.3ZM115.3,123.6h3c0-.8-.7-1.3-1.5-1.3s-1.4.5-1.5,1.3Z"/>
        <path class="cls-1" d="M127.4,119.8v6.5h-.8v-.7c-.4.5-1,.8-1.7.8-1.4,0-2.3-1-2.3-2.4s1-2.4,2.3-2.4,1.2.2,1.6.7v-2.6h.8ZM126.6,124c0-1-.7-1.6-1.6-1.6s-1.6.6-1.6,1.6.7,1.6,1.6,1.6,1.6-.6,1.6-1.6Z"/>
        <path class="cls-1" d="M136.6,123.2c0-1.8,1.4-3.1,3.2-3.1s1.8.3,2.3,1l-.6.6c-.5-.5-1-.7-1.7-.7-1.4,0-2.4,1-2.4,2.3s1,2.3,2.4,2.3,1.2-.2,1.7-.7l.6.6c-.6.6-1.4,1-2.3,1-1.9,0-3.2-1.3-3.2-3.1Z"/>
        <path class="cls-1" d="M145.5,124c0-1.4,1-2.4,2.4-2.4s2.4,1,2.4,2.4-1,2.4-2.4,2.4-2.4-1-2.4-2.4ZM149.4,124c0-1-.7-1.6-1.6-1.6s-1.6.6-1.6,1.6.7,1.6,1.6,1.6,1.6-.6,1.6-1.6Z"/>
        <path class="cls-1" d="M161.9,123.6v2.7h-.8v-2.6c0-.9-.4-1.4-1.2-1.4s-1.4.5-1.4,1.5v2.4h-.8v-2.6c0-.9-.4-1.4-1.2-1.4s-1.4.5-1.4,1.5v2.4h-.8v-4.6h.8v.7c.3-.5.9-.7,1.6-.7s1.3.3,1.6.9c.3-.5,1-.9,1.8-.9,1.1,0,1.9.6,1.9,2Z"/>
        <path class="cls-1" d="M173.9,123.6v2.7h-.8v-2.6c0-.9-.4-1.4-1.2-1.4s-1.4.5-1.4,1.5v2.4h-.8v-2.6c0-.9-.4-1.4-1.2-1.4s-1.4.5-1.4,1.5v2.4h-.8v-4.6h.8v.7c.3-.5.9-.7,1.6-.7s1.3.3,1.6.9c.3-.5,1-.9,1.8-.9,1.1,0,1.9.6,1.9,2Z"/>
        <path class="cls-1" d="M182.5,124.2h-3.8c.1.8.8,1.4,1.7,1.4s1-.2,1.3-.6l.5.5c-.4.5-1.1.8-1.8.8-1.5,0-2.5-1-2.5-2.4s1-2.4,2.3-2.4,2.3,1,2.3,2.4,0,.2,0,.3ZM178.7,123.6h3c0-.8-.7-1.3-1.5-1.3s-1.4.5-1.5,1.3Z"/>
        <path class="cls-1" d="M189,121.6v.8c0,0-.1,0-.2,0-.9,0-1.5.6-1.5,1.6v2.3h-.8v-4.6h.8v.8c.3-.5.9-.8,1.7-.8Z"/>
        <path class="cls-1" d="M192.3,124c0-1.4,1-2.4,2.4-2.4s1.5.3,1.9,1l-.6.4c-.3-.5-.8-.7-1.3-.7-.9,0-1.6.6-1.6,1.6s.7,1.6,1.6,1.6,1-.2,1.3-.7l.6.4c-.4.6-1.1,1-1.9,1-1.4,0-2.4-1-2.4-2.4Z"/>
        <path class="cls-1" d="M204.6,124.2h-3.8c.1.8.8,1.4,1.7,1.4s1-.2,1.3-.6l.5.5c-.4.5-1.1.8-1.8.8-1.5,0-2.5-1-2.5-2.4s1-2.4,2.3-2.4,2.3,1,2.3,2.4,0,.2,0,.3ZM200.9,123.6h3c0-.8-.7-1.3-1.5-1.3s-1.4.5-1.5,1.3Z"/>
      </g>
    </g>
  </g>
</svg>