<?xml version="1.0" encoding="UTF-8"?>
<svg xmlns="http://www.w3.org/2000/svg" version="1.1" viewBox="0 0 225 225">
  <defs>
    <style>
      .cls-1 {
        fill: #a5dce6;
      }

      .cls-2 {
        fill: #dd156e;
      }

      .cls-3 {
        fill: #fff380;
      }

      .cls-4 {
        fill: #2d2d2d;
      }
    </style>
  </defs>
  <!-- Generator: Adobe Illustrator 28.6.0, SVG Export Plug-In . SVG Version: 1.2.0 Build 709)  -->
  <g>
    <g id="Layer_1">
      <g>
        <g>
          <rect class="cls-1" x="99.7" y="139.1" width="26.3" height="6.9"/>
          <rect class="cls-2" x="129.4" y="139.1" width="26.3" height="6.9"/>
          <rect class="cls-3" x="159.2" y="139.1" width="26.3" height="6.9"/>
          <rect class="cls-4" x="188.9" y="139.1" width="26.3" height="6.9"/>
        </g>
        <g>
          <path class="cls-4" d="M49.9,110.7c0,7.4-6.2,11.7-17.9,11.7H8.1v-42.4h22.7c11.7,0,17.1,4.7,17.1,11.1s-2,7.2-5.9,9.1c5,1.8,7.9,5.5,7.9,10.5ZM22.1,90v6.3h6.7c3.2,0,4.7-1.1,4.7-3.2s-1.5-3.2-4.7-3.2h-6.7ZM35.5,109.1c0-2.2-1.6-3.3-4.7-3.3h-8.6v6.7h8.6c3.2,0,4.7-1.2,4.7-3.3Z"/>
          <path class="cls-4" d="M92.3,115h-16.1l-2.8,7.4h-14.5l18.5-42.4h14.1l18.5,42.4h-14.8l-2.8-7.4ZM88.4,104.7l-4.1-10.7-4.1,10.7h8.2Z"/>
          <path class="cls-4" d="M148.2,100.1h12.4v17.9c-5.2,3.5-12.2,5.4-18.5,5.4-13.7,0-23.7-9.1-23.7-22.2s10-22.2,24-22.2,15.1,2.9,19.4,8.2l-9.1,8.1c-2.7-3.1-5.8-4.7-9.5-4.7-6.3,0-10.3,4.1-10.3,10.6s4,10.6,10.1,10.6,3.5-.3,5.2-1v-10.7Z"/>
          <path class="cls-4" d="M203.3,100.1h12.4v17.9c-5.2,3.5-12.2,5.4-18.5,5.4-13.7,0-23.7-9.1-23.7-22.2s10-22.2,24-22.2,15.1,2.9,19.4,8.2l-9.1,8.1c-2.7-3.1-5.8-4.7-9.5-4.7-6.3,0-10.3,4.1-10.3,10.6s4,10.6,10.1,10.6,3.5-.3,5.2-1v-10.7Z"/>
        </g>
        <g>
          <path class="cls-4" d="M9.3,131.4c0-2.1,1.6-3.6,3.7-3.6s2,.4,2.7,1.1l-.7.6c-.5-.6-1.2-.8-2-.8-1.6,0-2.8,1.2-2.8,2.7s1.2,2.7,2.8,2.7,1.4-.3,2-.8l.7.6c-.6.7-1.6,1.1-2.7,1.1-2.1,0-3.7-1.5-3.7-3.6Z"/>
          <path class="cls-4" d="M20.3,127.5h1v7.5h-1v-7.5Z"/>
          <path class="cls-4" d="M25.8,132.3c0-1.6,1.2-2.7,2.8-2.7s2.8,1.1,2.8,2.7-1.2,2.7-2.8,2.7-2.8-1.1-2.8-2.7ZM30.4,132.3c0-1.1-.8-1.9-1.8-1.9s-1.8.7-1.8,1.9.8,1.9,1.8,1.9,1.8-.7,1.8-1.9Z"/>
          <path class="cls-4" d="M41,129.6v5.4h-.9v-.8c-.4.6-1.1.9-1.8.9-1.4,0-2.3-.8-2.3-2.3v-3.1h1v3c0,1,.5,1.6,1.4,1.6s1.7-.6,1.7-1.8v-2.8h1Z"/>
          <path class="cls-4" d="M51.1,127.5v7.5h-.9v-.8c-.4.6-1.1.9-1.9.9-1.6,0-2.7-1.1-2.7-2.7s1.1-2.7,2.7-2.7,1.4.3,1.9.9v-2.9h1ZM50.1,132.3c0-1.1-.8-1.9-1.8-1.9s-1.8.7-1.8,1.9.8,1.9,1.8,1.9,1.8-.7,1.8-1.9Z"/>
          <path class="cls-4" d="M55.8,131.8h2.7v.8h-2.7v-.8Z"/>
          <path class="cls-4" d="M69.1,130.4c0,1.5-1.1,2.5-2.9,2.5h-1.7v2.1h-1v-7.1h2.8c1.8,0,2.9.9,2.9,2.5ZM68.1,130.4c0-1-.7-1.6-2-1.6h-1.7v3.2h1.7c1.3,0,2-.6,2-1.6Z"/>
          <path class="cls-4" d="M73.2,132.3c0-1.6,1.2-2.7,2.8-2.7s2.8,1.1,2.8,2.7-1.2,2.7-2.8,2.7-2.8-1.1-2.8-2.7ZM77.8,132.3c0-1.1-.8-1.9-1.8-1.9s-1.8.7-1.8,1.9.8,1.9,1.8,1.9,1.8-.7,1.8-1.9Z"/>
          <path class="cls-4" d="M91.3,129.6l-2,5.4h-.9l-1.5-4.1-1.6,4.1h-.9l-2-5.4h.9l1.6,4.3,1.6-4.3h.8l1.6,4.3,1.6-4.3h.9Z"/>
          <path class="cls-4" d="M100.1,132.6h-4.3c.1.9.9,1.6,1.9,1.6s1.2-.2,1.5-.6l.5.6c-.5.6-1.2.9-2.1.9-1.7,0-2.9-1.1-2.9-2.7s1.1-2.7,2.7-2.7,2.6,1.1,2.6,2.8,0,.2,0,.3ZM95.8,131.9h3.4c-.1-.9-.8-1.5-1.7-1.5s-1.6.6-1.7,1.5Z"/>
          <path class="cls-4" d="M107.6,129.6v.9c0,0-.2,0-.2,0-1,0-1.7.6-1.7,1.8v2.7h-1v-5.4h.9v.9c.3-.6,1-.9,1.9-.9Z"/>
          <path class="cls-4" d="M116.8,132.6h-4.3c.1.9.9,1.6,1.9,1.6s1.2-.2,1.5-.6l.5.6c-.5.6-1.2.9-2.1.9-1.7,0-2.9-1.1-2.9-2.7s1.1-2.7,2.7-2.7,2.6,1.1,2.6,2.8,0,.2,0,.3ZM112.5,131.9h3.4c-.1-.9-.8-1.5-1.7-1.5s-1.6.6-1.7,1.5Z"/>
          <path class="cls-4" d="M126.4,127.5v7.5h-.9v-.8c-.4.6-1.1.9-1.9.9-1.6,0-2.7-1.1-2.7-2.7s1.1-2.7,2.7-2.7,1.4.3,1.9.9v-2.9h1ZM125.5,132.3c0-1.1-.8-1.9-1.8-1.9s-1.8.7-1.8,1.9.8,1.9,1.8,1.9,1.8-.7,1.8-1.9Z"/>
          <path class="cls-4" d="M137,131.4c0-2.1,1.6-3.6,3.7-3.6s2,.4,2.7,1.1l-.7.6c-.5-.6-1.2-.8-2-.8-1.6,0-2.8,1.2-2.8,2.7s1.2,2.7,2.8,2.7,1.4-.3,2-.8l.7.6c-.6.7-1.6,1.1-2.7,1.1-2.1,0-3.7-1.5-3.7-3.6Z"/>
          <path class="cls-4" d="M147.3,132.3c0-1.6,1.2-2.7,2.8-2.7s2.8,1.1,2.8,2.7-1.2,2.7-2.8,2.7-2.8-1.1-2.8-2.7ZM151.9,132.3c0-1.1-.8-1.9-1.8-1.9s-1.8.7-1.8,1.9.8,1.9,1.8,1.9,1.8-.7,1.8-1.9Z"/>
          <path class="cls-4" d="M166.3,131.9v3.1h-1v-3c0-1.1-.5-1.6-1.4-1.6s-1.6.6-1.6,1.8v2.8h-1v-3c0-1.1-.5-1.6-1.4-1.6s-1.6.6-1.6,1.8v2.8h-1v-5.4h.9v.8c.4-.5,1-.8,1.8-.8s1.5.3,1.9,1c.4-.6,1.2-1,2.1-1,1.3,0,2.2.7,2.2,2.3Z"/>
          <path class="cls-4" d="M180.2,131.9v3.1h-1v-3c0-1.1-.5-1.6-1.4-1.6s-1.6.6-1.6,1.8v2.8h-1v-3c0-1.1-.5-1.6-1.4-1.6s-1.6.6-1.6,1.8v2.8h-1v-5.4h.9v.8c.4-.5,1-.8,1.8-.8s1.5.3,1.9,1c.4-.6,1.2-1,2.1-1,1.3,0,2.2.7,2.2,2.3Z"/>
          <path class="cls-4" d="M190.1,132.6h-4.3c.1.9.9,1.6,1.9,1.6s1.2-.2,1.5-.6l.5.6c-.5.6-1.2.9-2.1.9-1.7,0-2.9-1.1-2.9-2.7s1.1-2.7,2.7-2.7,2.6,1.1,2.6,2.8,0,.2,0,.3ZM185.7,131.9h3.4c-.1-.9-.8-1.5-1.7-1.5s-1.6.6-1.7,1.5Z"/>
          <path class="cls-4" d="M197.6,129.6v.9c0,0-.2,0-.2,0-1,0-1.7.6-1.7,1.8v2.7h-1v-5.4h.9v.9c.3-.6,1-.9,1.9-.9Z"/>
          <path class="cls-4" d="M201.4,132.3c0-1.6,1.2-2.7,2.8-2.7s1.8.4,2.2,1.1l-.7.5c-.3-.5-.9-.8-1.5-.8-1,0-1.8.7-1.8,1.9s.8,1.9,1.8,1.9,1.1-.2,1.5-.8l.7.5c-.4.7-1.2,1.2-2.2,1.2-1.6,0-2.8-1.1-2.8-2.7Z"/>
          <path class="cls-4" d="M215.7,132.6h-4.3c.1.9.9,1.6,1.9,1.6s1.2-.2,1.5-.6l.5.6c-.5.6-1.2.9-2.1.9-1.7,0-2.9-1.1-2.9-2.7s1.1-2.7,2.7-2.7,2.6,1.1,2.6,2.8,0,.2,0,.3ZM211.3,131.9h3.4c-.1-.9-.8-1.5-1.7-1.5s-1.6.6-1.7,1.5Z"/>
        </g>
      </g>
    </g>
  </g>
</svg>